<?xml version="1.0" standalone="no"?><!DOCTYPE svg PUBLIC "-//W3C//DTD SVG 1.1//EN" "http://www.w3.org/Graphics/SVG/1.1/DTD/svg11.dtd"><svg t="1630990322428" class="icon" viewBox="0 0 1024 1024" version="1.1" xmlns="http://www.w3.org/2000/svg" p-id="1523" data-spm-anchor-id="a313x.7781069.0.i0" xmlns:xlink="http://www.w3.org/1999/xlink" width="200" height="200"><defs><style type="text/css"></style></defs><path d="M510.14656 1002.20928c270.30016 0 490.23488-219.9296 490.23488-490.23488 0-270.3104-219.9296-490.24-490.23488-490.24-270.3104 0-490.24 219.9296-490.24 490.24 0 270.30528 219.89888 490.23488 490.24 490.23488z m0-939.50976c247.72096 0 449.27488 201.55392 449.27488 449.28 0 247.72096-201.5488 449.27488-449.27488 449.27488-247.72608 0-449.28-201.5488-449.28-449.27488 0-247.7312 201.5488-449.28 449.28-449.28z" p-id="1524" fill="#2c2c2c"></path><path d="M332.80512 340.9408c0 51.10272 18.49856 97.67424 48.93184 132.10112-99.65056 42.3168-168.2688 135.49568-168.2688 269.09184 0 121.00608 590.34112 138.97728 596.70528 0 6.19008-133.8112-65.65376-227.42528-167.84896-269.5424 30.0288-34.41152 48.512-80.56832 48.512-131.67104 0-106.22976-80.1792-192.36864-179.01056-192.36864S332.80512 234.69056 332.80512 340.9408z m39.7824 0c0-82.72896 62.25408-149.62688 139.22816-149.62688s139.23328 66.9184 139.23328 149.62688c0 59.84768-32.8192 111.58016-80.1792 135.51616 114.37056 28.64128 199.52128 117.57056 199.52128 249.2416 0 101.53984-517.1456 96.18432-517.1456 0 0-131.67104 85.13024-220.57984 199.5008-249.2416-47.33952-23.93088-80.15872-75.66336-80.15872-135.51616z" p-id="1525" fill="#2c2c2c"></path></svg>